<?xml version="1.0" encoding="utf-8"?>
<svg height="1024" width="1024" version="1.1" xmlns="http://www.w3.org/2000/svg" xmlns:xlink="http://www.w3.org/1999/xlink" x="0px" y="0px"
	 viewBox="0 0 120 120" style="enable-background:new 0 0 120 120;" xml:space="preserve">
<style type="text/css">
	.st0{fill-rule:evenodd;clip-rule:evenodd;fill:#FFFFFF;}
	.st1{fill-rule:evenodd;clip-rule:evenodd;fill:#191717;}
</style>
<path class="st0" d="M74.3,112.1c0-1.9,0.1-8.1,0.1-15.9c0-5.4-1.9-8.9-3.9-10.7c12.9-1.4,26.4-6.3,26.4-28.5
	c0-6.3-2.2-11.5-5.9-15.5c0.6-1.5,2.6-7.3-0.6-15.3c0,0-4.8-1.6-15.9,5.9c-4.6-1.3-9.6-1.9-14.5-1.9c-4.9,0-9.9,0.7-14.5,1.9
	c-11.1-7.5-15.9-5.9-15.9-5.9c-3.1,8-1.2,13.8-0.6,15.3c-3.7,4-6,9.2-6,15.5c0,22.2,13.5,27.1,26.4,28.6c-1.7,1.4-3.1,4-3.7,7.7
	c-3.3,1.5-11.7,4-16.8-4.8c0,0-3.1-5.6-8.9-6c0,0-5.7-0.1-0.4,3.5c0,0,3.8,1.8,6.4,8.5c0,0,3.4,11.3,19.5,7.8
	c0,4.8,0.1,8.5,0.1,9.8c0,1.5-1.1,3.3-3.9,2.8c5.7,1.9,11.9,3,18.3,3c6.4,0,12.5-1.1,18.3-3C75.4,115.4,74.3,113.6,74.3,112.1z"/>
<path class="st1" d="M60,2.1C28.1,2.1,2.1,28,2.1,60c0,25.6,16.6,47.2,39.6,54.9c2.9,0.5,3.9-1.3,3.9-2.8c0-1.4-0.1-5-0.1-9.8
	c-16.1,3.5-19.5-7.8-19.5-7.8c-2.6-6.7-6.4-8.5-6.4-8.5c-5.3-3.6,0.4-3.5,0.4-3.5c5.8,0.4,8.9,6,8.9,6c5.2,8.8,13.5,6.3,16.8,4.8
	c0.5-3.7,2-6.3,3.7-7.7C36.6,84.1,23.1,79.1,23.1,57c0-6.3,2.3-11.5,6-15.5c-0.6-1.5-2.6-7.3,0.6-15.3c0,0,4.9-1.6,15.9,5.9
	c4.6-1.3,9.6-1.9,14.5-1.9c4.9,0,9.9,0.7,14.5,1.9c11-7.5,15.9-5.9,15.9-5.9c3.2,8,1.2,13.8,0.6,15.3c3.7,4,5.9,9.2,5.9,15.5
	c0,22.2-13.5,27.1-26.4,28.5c2.1,1.8,3.9,5.3,3.9,10.7c0,7.7-0.1,14-0.1,15.9c0,1.5,1,3.3,4,2.8c23-7.7,39.5-29.3,39.5-54.9
	C117.9,28,91.9,2.1,60,2.1z"/>
</svg>
